<?xml version="1.0" encoding="utf-8"?>
<!-- Generator: Adobe Illustrator 24.1.2, SVG Export Plug-In . SVG Version: 6.00 Build 0)  -->
<svg version="1.1" id="katman_1" xmlns="http://www.w3.org/2000/svg" xmlns:xlink="http://www.w3.org/1999/xlink" x="0px" y="0px"
	 viewBox="0 0 1080 270" style="enable-background:new 0 0 1080 270;" xml:space="preserve">
<style type="text/css">
	.st0{fill:#FFFFFF;}
	.st1{fill:#FCC419;}
</style>
<g>
	<path class="st0" d="M288.35,213.38V80.51h40.73v95.85h57.06v37.03h-97.79V213.38z"/>
	<path class="st0" d="M414.69,56.32c11.55,0,22.22,6.74,22.22,20.25c0,13.27-10.67,20.04-22.22,20.04s-22.22-6.74-22.22-20.04
		C392.47,63.07,403.14,56.32,414.69,56.32z M395.09,213.38V107.29h39.44v106.09H395.09z"/>
	<path class="st0" d="M488.54,121.46c13.94-10.89,24.18-15.9,36.17-15.9c22.22,0,30.72,11.55,30.72,40.31v67.53h-39.44v-56.21
		c0-11.12-1.95-14.59-9.8-14.59c-6.74,0-12.42,3.92-17.65,9.8v60.99H449.1V107.3h39.44L488.54,121.46L488.54,121.46z"/>
	<path class="st0" d="M606.18,140.4l29.19-33.11h42.48v3.04l-37.25,42.91l38.77,56.86v3.27h-43.14L615.55,182l-9.37,10.67v20.69
		h-39.44V73.29h39.44L606.18,140.4L606.18,140.4z"/>
</g>
<g>
	<path class="st1" d="M806.35,151.07v-6.53l-27.45,68.84h-23.52l-27.01-68.84v5.45l-1.52,63.38h-40.29l5.45-132.88h45.09
		l26.57,64.03c1.75,3.92,2.83,8.05,3.5,10.45c0.65-2.4,1.75-6.53,3.27-10.45l26.8-64.03h45.31L848,213.38h-40.73L806.35,151.07z"/>
	<path class="st1" d="M857.96,213.38V80.51h40.73v132.88h-40.73V213.38z"/>
	<path class="st1" d="M1005.88,118.84c-20.69-6.1-33.54-8.28-43.99-8.05c-8.05,0-10.24,2.18-10.24,5.88
		c0,6.33,7.85,6.53,29.41,14.15c19.6,6.97,35.94,14.38,35.94,40.08c0,28.76-20.27,44.43-51.63,44.43
		c-20.04,0-43.14-6.53-62.74-17.65l13.5-30.92c19.4,10.03,36.81,15.02,47.26,15.02c7.18,0,9.6-2.62,9.6-6.76
		c0-5.67-6.74-6.74-28.76-13.94c-24.82-8.28-36.6-17.86-36.6-40.73c0-28.76,18.52-42.04,49.24-42.04c20.25,0,36.81,2.62,59.25,9.8
		L1005.88,118.84z"/>
</g>
<g>
	<path class="st0" d="M149.11,111.99c-2.36-0.58-6.46-1.19-11.03,0.22c-1.47,0.44-3.79,1.09-5.89,3.08c-1.58,1.49-2.91,3.46-4,5.92
		c-1.09,2.47-2.37,5.61-3.87,9.44l-8.92,24.44l-0.5-58.37l-39.47,0.35l0.99,114.44l23.48-0.2c6.23-0.06,11.36-0.56,15.37-1.52
		c4.01-0.96,7.36-2.41,10.04-4.34s4.88-4.29,6.59-7.09c1.7-2.79,3.23-6.05,4.59-9.76c4.22-10.73,8.43-21.48,12.65-32.21
		C149.11,141.57,149.11,126.79,149.11,111.99z"/>
	<g>
		<path class="st0" d="M229.2,57.07l0.14,114.45l-39.49,0.05l-0.07-58.37l-9.12,24.38c-1.38,3.82-2.7,6.95-3.94,9.4
			c-1.25,2.46-2.62,4.42-4.15,5.89c-2.08,2.02-4.44,2.61-5.81,3.03c-3.94,1.21-7.44,0.87-9.6,0.47c0-14.78,0-29.58,0-44.36
			c3.86-10.82,7.71-21.64,11.57-32.45c1.52-3.7,3.1-6.95,4.77-9.74c1.67-2.78,3.83-5.13,6.54-7.04c2.7-1.9,6.09-3.33,10.17-4.26
			c4.09-0.93,9.18-1.4,15.27-1.41L229.2,57.07z"/>
	</g>
</g>
<g>
	<circle class="st1" cx="94.77" cy="72.71" r="16.95"/>
	<circle class="st1" cx="208.81" cy="195.82" r="17.04"/>
</g>
</svg>
