<?xml version="1.0" encoding="utf-8"?>
<!-- Generator: Adobe Illustrator 24.1.2, SVG Export Plug-In . SVG Version: 6.00 Build 0)  -->
<svg version="1.1" id="katman_1" xmlns="http://www.w3.org/2000/svg" xmlns:xlink="http://www.w3.org/1999/xlink" x="0px" y="0px"
	 viewBox="0 0 300 300" style="enable-background:new 0 0 300 300;" xml:space="preserve">
<style type="text/css">
	.st0{fill:#FCC419;}
</style>
<g>
	<path class="st0" d="M208.72,237.1H88.51c-12.83,0-19.9,0-26.55-3.39c-5.89-3-10.59-7.7-13.59-13.59
		c-3.39-6.65-3.39-13.72-3.39-26.55v-78.76c0-0.64,0-1.27,0-1.89c0-0.13,0-0.27,0-0.4c0.01-11.4,0.21-18.01,3.39-24.26
		c3-5.89,7.7-10.59,13.59-13.59c6.65-3.39,13.72-3.39,26.55-3.39h120.21c12.83,0,19.9,0,26.55,3.39c5.89,3,10.59,7.7,13.59,13.59
		c3.18,6.24,3.38,12.85,3.39,24.26c0,0.13,0,0.27,0,0.4c0,0.62,0,1.25,0,1.89v78.76c0,12.83,0,19.9-3.39,26.55
		c-3,5.89-7.7,10.59-13.59,13.59C228.62,237.1,221.56,237.1,208.72,237.1z M65.71,132.11v61.47c0,8.99,0,14.92,1.13,17.14
		c1,1.96,2.57,3.53,4.53,4.53c2.22,1.13,8.15,1.13,17.14,1.13h120.21c8.99,0,14.92,0,17.14-1.13c1.96-1,3.53-2.57,4.53-4.53
		c1.13-2.22,1.13-8.15,1.13-17.14v-61.47l-40.37,26.91c-13.85,9.23-21.48,14.32-30.46,16.47c-7.9,1.89-16.25,1.89-24.15,0
		c-8.98-2.15-16.61-7.24-30.46-16.47L65.71,132.11z M65.75,107.22l51.83,34.55c12.26,8.17,18.41,12.27,23.8,13.56
		c4.74,1.14,9.75,1.14,14.49,0c5.39-1.29,11.54-5.39,23.8-13.56l51.83-34.55c-0.08-4.78-0.32-8.03-1.09-9.55
		c-1-1.96-2.57-3.53-4.53-4.53c-2.22-1.13-8.15-1.13-17.14-1.13H88.51c-8.99,0-14.92,0-17.14,1.13c-1.96,1-3.53,2.57-4.53,4.53
		C66.07,99.19,65.82,102.45,65.75,107.22z"/>
</g>
</svg>
