<?xml version="1.0" encoding="utf-8"?>
<!-- Generator: Adobe Illustrator 24.1.2, SVG Export Plug-In . SVG Version: 6.00 Build 0)  -->
<svg version="1.1" id="katman_1" xmlns="http://www.w3.org/2000/svg" xmlns:xlink="http://www.w3.org/1999/xlink" x="0px" y="0px"
	 viewBox="0 0 100 100" style="enable-background:new 0 0 100 100;" xml:space="preserve">
<style type="text/css">
	.st0{fill-rule:evenodd;clip-rule:evenodd;fill:#A3A3A3;}
</style>
<g id="Page-1_2_">
	<g id="Dribbble-Light-Preview_2_" transform="translate(-420.000000, -2159.000000)">
		<g id="icons_2_" transform="translate(56.000000, 160.000000)">
			<path id="profile-_x5B__x23_1335_x5D__2_" class="st0" d="M414,2049c-7,0-12.8-5.7-12.8-12.8s5.7-12.8,12.8-12.8
				s12.8,5.7,12.8,12.8S421,2049,414,2049 M426,2051.1c4.4-3.5,7.2-8.9,7.2-14.9c0-10.6-8.6-19.1-19.1-19.1
				c-10.6,0-19.1,8.6-19.1,19.1c0,6,2.8,11.4,7.2,14.9c-11.7,4.4-19.9,15.2-19.9,29.8h6.4c0-16,11.4-25.5,25.5-25.5
				s25.5,9.6,25.5,25.5h6.4C445.9,2066.4,437.7,2055.5,426,2051.1"/>
		</g>
	</g>
</g>
</svg>
